<svg xmlns="http://www.w3.org/2000/svg" xmlns:xlink="http://www.w3.org/1999/xlink" width="500" zoomAndPan="magnify" viewBox="0 0 375 374.999991" height="500" preserveAspectRatio="xMidYMid meet" version="1.0"><defs><clipPath id="68c84fd0d7"><path d="M 6.601562 239 L 374.851562 239 L 374.851562 299.667969 L 6.601562 299.667969 Z M 6.601562 239 " clip-rule="nonzero"/></clipPath><clipPath id="180c68f64d"><path d="M 55 53.863281 L 326 53.863281 L 326 225 L 55 225 Z M 55 53.863281 " clip-rule="nonzero"/></clipPath></defs><g clip-path="url(#68c84fd0d7)"><path fill="#0097b2" d="M 243.945312 284.195312 L 137.648438 284.195312 C 136.917969 284.195312 136.449219 283.425781 136.785156 282.777344 L 144.96875 267.027344 C 145.132812 266.703125 145.46875 266.503906 145.832031 266.503906 L 235.765625 266.503906 C 236.128906 266.503906 236.460938 266.703125 236.628906 267.027344 L 244.808594 282.777344 C 245.148438 283.425781 244.675781 284.195312 243.945312 284.195312 Z M 372.644531 285.984375 L 328.625 241.96875 C 327.121094 240.460938 325.085938 239.617188 322.957031 239.617188 L 58.636719 239.617188 C 56.511719 239.617188 54.472656 240.460938 52.96875 241.96875 L 8.949219 285.984375 C 7.445312 287.488281 6.601562 289.527344 6.601562 291.652344 C 6.601562 296.078125 10.191406 299.667969 14.617188 299.667969 L 366.976562 299.667969 C 371.402344 299.667969 374.992188 296.078125 374.992188 291.652344 C 374.992188 289.527344 374.148438 287.488281 372.644531 285.984375 " fill-opacity="1" fill-rule="nonzero"/></g><g clip-path="url(#180c68f64d)"><path fill="#0097b2" d="M 313.101562 53.949219 L 68.492188 53.949219 C 61.414062 53.949219 55.625 59.738281 55.625 66.816406 L 55.625 212.042969 C 55.625 219.121094 61.414062 224.910156 68.492188 224.910156 L 313.101562 224.910156 C 320.179688 224.910156 325.972656 219.121094 325.972656 212.042969 L 325.972656 66.816406 C 325.972656 59.738281 320.179688 53.949219 313.101562 53.949219 Z M 311.078125 68.84375 L 311.078125 210.019531 L 70.519531 210.019531 L 70.519531 68.84375 L 311.078125 68.84375 " fill-opacity="1" fill-rule="nonzero"/></g></svg>