<svg class="w-10 h-10" viewBox="0 0 189 189" fill="none" xmlns="http://www.w3.org/2000/svg">
                  <path d="M87.4996 184.7C88.2996 183.9 89.4996 183.9 90.2996 184.7C91.0996 185.5 91.0996 186.7 90.2996 187.5C89.4996 188.3 88.2996 188.3 87.4996 187.5C86.7996 186.8 86.7996 185.5 87.4996 184.7Z" fill="#ffffff"/>
                  <path d="M87.4996 184.7C88.2996 183.9 89.4996 183.9 90.2996 184.7C91.0996 185.5 91.0996 186.7 90.2996 187.5C89.4996 188.3 88.2996 188.3 87.4996 187.5C86.7996 186.8 86.7996 185.5 87.4996 184.7Z" fill="#ffffff" fill-opacity="0.2"/>
                  <path d="M65.8002 163C66.6002 162.2 67.8002 162.2 68.6002 163C69.4002 163.8 69.4002 165 68.6002 165.8C67.8002 166.6 66.6002 166.6 65.8002 165.8C65.0002 165 65.0002 163.8 65.8002 163Z" fill="#ffffff"/>
                  <path d="M65.8002 163C66.6002 162.2 67.8002 162.2 68.6002 163C69.4002 163.8 69.4002 165 68.6002 165.8C67.8002 166.6 66.6002 166.6 65.8002 165.8C65.0002 165 65.0002 163.8 65.8002 163Z" fill="#ffffff" fill-opacity="0.2"/>
                  <path d="M44.1 141.3C44.9 140.5 46.1 140.5 46.9 141.3C47.7 142.1 47.7 143.3 46.9 144.1C46.1 144.9 44.9 144.9 44.1 144.1C43.3 143.3 43.3 142 44.1 141.3Z" fill="#ffffff"/>
                  <path d="M44.1 141.3C44.9 140.5 46.1 140.5 46.9 141.3C47.7 142.1 47.7 143.3 46.9 144.1C46.1 144.9 44.9 144.9 44.1 144.1C43.3 143.3 43.3 142 44.1 141.3Z" fill="#ffffff" fill-opacity="0.2"/>
                  <path d="M23.7002 122.9C24.8048 122.9 25.7002 122.005 25.7002 120.9C25.7002 119.796 24.8048 118.9 23.7002 118.9C22.5956 118.9 21.7002 119.796 21.7002 120.9C21.7002 122.005 22.5956 122.9 23.7002 122.9Z" fill="#ffffff"/>
                  <path d="M23.7002 122.9C24.8048 122.9 25.7002 122.005 25.7002 120.9C25.7002 119.796 24.8048 118.9 23.7002 118.9C22.5956 118.9 21.7002 119.796 21.7002 120.9C21.7002 122.005 22.5956 122.9 23.7002 122.9Z" fill="#ffffff" fill-opacity="0.2"/>
                  <path d="M0.6 97.8002C1.4 97.0002 2.6 97.0002 3.4 97.8002C4.2 98.6002 4.2 99.8002 3.4 100.6C2.6 101.4 1.4 101.4 0.6 100.6C-0.2 99.8002 -0.2 98.5002 0.6 97.8002Z" fill="#ffffff"/>
                  <path d="M0.6 97.8002C1.4 97.0002 2.6 97.0002 3.4 97.8002C4.2 98.6002 4.2 99.8002 3.4 100.6C2.6 101.4 1.4 101.4 0.6 100.6C-0.2 99.8002 -0.2 98.5002 0.6 97.8002Z" fill="#ffffff" fill-opacity="0.2"/>
                  <path d="M107 165.3C107.8 164.5 109 164.5 109.8 165.3C110.6 166.1 110.6 167.3 109.8 168.1C109 168.9 107.8 168.9 107 168.1C106.2 167.3 106.2 166.1 107 165.3Z" fill="#ffffff"/>
                  <path d="M107 165.3C107.8 164.5 109 164.5 109.8 165.3C110.6 166.1 110.6 167.3 109.8 168.1C109 168.9 107.8 168.9 107 168.1C106.2 167.3 106.2 166.1 107 165.3Z" fill="#ffffff" fill-opacity="0.2"/>
                  <path d="M85.2008 143.6C86.0008 142.8 87.2008 142.8 88.0008 143.6C88.8008 144.4 88.8008 145.6 88.0008 146.4C87.2008 147.2 86.0008 147.2 85.2008 146.4C84.5008 145.6 84.5008 144.3 85.2008 143.6Z" fill="#ffffff"/>
                  <path d="M85.2008 143.6C86.0008 142.8 87.2008 142.8 88.0008 143.6C88.8008 144.4 88.8008 145.6 88.0008 146.4C87.2008 147.2 86.0008 147.2 85.2008 146.4C84.5008 145.6 84.5008 144.3 85.2008 143.6Z" fill="#ffffff" fill-opacity="0.2"/>
                  <path d="M63.5004 121.8C64.3004 121 65.5004 121 66.3004 121.8C67.1004 122.6 67.1004 123.8 66.3004 124.6C65.5004 125.4 64.3004 125.4 63.5004 124.6C62.7004 123.8 62.7004 122.6 63.5004 121.8Z" fill="#ffffff"/>
                  <path d="M63.5004 121.8C64.3004 121 65.5004 121 66.3004 121.8C67.1004 122.6 67.1004 123.8 66.3004 124.6C65.5004 125.4 64.3004 125.4 63.5004 124.6C62.7004 123.8 62.7004 122.6 63.5004 121.8Z" fill="#ffffff" fill-opacity="0.2"/>
                  <path d="M43.1006 103.5C44.2052 103.5 45.1006 102.605 45.1006 101.5C45.1006 100.395 44.2052 99.5 43.1006 99.5C41.996 99.5 41.1006 100.395 41.1006 101.5C41.1006 102.605 41.996 103.5 43.1006 103.5Z" fill="#ffffff"/>
                  <path d="M43.1006 103.5C44.2052 103.5 45.1006 102.605 45.1006 101.5C45.1006 100.395 44.2052 99.5 43.1006 99.5C41.996 99.5 41.1006 100.395 41.1006 101.5C41.1006 102.605 41.996 103.5 43.1006 103.5Z" fill="#ffffff" fill-opacity="0.2"/>
                  <path d="M21.4004 81.7002C22.505 81.7002 23.4004 80.8048 23.4004 79.7002C23.4004 78.5956 22.505 77.7002 21.4004 77.7002C20.2958 77.7002 19.4004 78.5956 19.4004 79.7002C19.4004 80.8048 20.2958 81.7002 21.4004 81.7002Z" fill="#ffffff"/>
                  <path d="M21.4004 81.7002C22.505 81.7002 23.4004 80.8048 23.4004 79.7002C23.4004 78.5956 22.505 77.7002 21.4004 77.7002C20.2958 77.7002 19.4004 78.5956 19.4004 79.7002C19.4004 80.8048 20.2958 81.7002 21.4004 81.7002Z" fill="#ffffff" fill-opacity="0.2"/>
                  <path d="M127.8 149.3C128.904 149.3 129.8 148.404 129.8 147.3C129.8 146.195 128.904 145.3 127.8 145.3C126.695 145.3 125.8 146.195 125.8 147.3C125.8 148.404 126.695 149.3 127.8 149.3Z" fill="#ffffff"/>
                  <path d="M127.8 149.3C128.904 149.3 129.8 148.404 129.8 147.3C129.8 146.195 128.904 145.3 127.8 145.3C126.695 145.3 125.8 146.195 125.8 147.3C125.8 148.404 126.695 149.3 127.8 149.3Z" fill="#ffffff" fill-opacity="0.2"/>
                  <path d="M106 127.5C107.105 127.5 108 126.605 108 125.5C108 124.395 107.105 123.5 106 123.5C104.895 123.5 104 124.395 104 125.5C104 126.605 104.895 127.5 106 127.5Z" fill="#ffffff"/>
                  <path d="M106 127.5C107.105 127.5 108 126.605 108 125.5C108 124.395 107.105 123.5 106 123.5C104.895 123.5 104 124.395 104 125.5C104 126.605 104.895 127.5 106 127.5Z" fill="#ffffff" fill-opacity="0.2"/>
                  <path d="M82.8998 102.4C83.6998 101.6 84.8998 101.6 85.6998 102.4C86.4998 103.2 86.4998 104.4 85.6998 105.2C84.8998 106 83.6998 106 82.8998 105.2C82.0998 104.4 82.0998 103.2 82.8998 102.4Z" fill="#ffffff"/>
                  <path d="M82.8998 102.4C83.6998 101.6 84.8998 101.6 85.6998 102.4C86.4998 103.2 86.4998 104.4 85.6998 105.2C84.8998 106 83.6998 106 82.8998 105.2C82.0998 104.4 82.0998 103.2 82.8998 102.4Z" fill="#ffffff" fill-opacity="0.2"/>
                  <path d="M61.1996 80.6996C61.9996 79.8996 63.1996 79.8996 63.9996 80.6996C64.7996 81.4996 64.7996 82.6996 63.9996 83.4996C63.1996 84.2996 61.9996 84.2996 61.1996 83.4996C60.3996 82.6996 60.3996 81.3996 61.1996 80.6996Z" fill="#ffffff"/>
                  <path d="M61.1996 80.6996C61.9996 79.8996 63.1996 79.8996 63.9996 80.6996C64.7996 81.4996 64.7996 82.6996 63.9996 83.4996C63.1996 84.2996 61.9996 84.2996 61.1996 83.4996C60.3996 82.6996 60.3996 81.3996 61.1996 80.6996Z" fill="#ffffff" fill-opacity="0.2"/>
                  <path d="M39.4 58.8998C40.2 58.0998 41.4 58.0998 42.2 58.8998C43 59.6998 43 60.8998 42.2 61.6998C41.4 62.4998 40.2 62.4998 39.4 61.6998C38.7 60.8998 38.7 59.6998 39.4 58.8998Z" fill="#ffffff"/>
                  <path d="M39.4 58.8998C40.2 58.0998 41.4 58.0998 42.2 58.8998C43 59.6998 43 60.8998 42.2 61.6998C41.4 62.4998 40.2 62.4998 39.4 61.6998C38.7 60.8998 38.7 59.6998 39.4 58.8998Z" fill="#ffffff" fill-opacity="0.2"/>
                  <path d="M145.799 126.5C146.599 125.7 147.799 125.7 148.599 126.5C149.399 127.3 149.399 128.5 148.599 129.3C147.799 130.1 146.599 130.1 145.799 129.3C145.099 128.5 145.099 127.2 145.799 126.5Z" fill="#ffffff"/>
                  <path d="M145.799 126.5C146.599 125.7 147.799 125.7 148.599 126.5C149.399 127.3 149.399 128.5 148.599 129.3C147.799 130.1 146.599 130.1 145.799 129.3C145.099 128.5 145.099 127.2 145.799 126.5Z" fill="#ffffff" fill-opacity="0.2"/>
                  <path d="M124.1 104.7C124.9 103.9 126.1 103.9 126.9 104.7C127.7 105.5 127.7 106.7 126.9 107.5C126.1 108.3 124.9 108.3 124.1 107.5C123.3 106.7 123.3 105.5 124.1 104.7Z" fill="#ffffff"/>
                  <path d="M124.1 104.7C124.9 103.9 126.1 103.9 126.9 104.7C127.7 105.5 127.7 106.7 126.9 107.5C126.1 108.3 124.9 108.3 124.1 107.5C123.3 106.7 123.3 105.5 124.1 104.7Z" fill="#ffffff" fill-opacity="0.2"/>
                  <path d="M102.299 82.9999C103.099 82.1999 104.299 82.1999 105.099 82.9999C105.899 83.7999 105.899 84.9999 105.099 85.7999C104.299 86.5999 103.099 86.5999 102.299 85.7999C101.599 84.9999 101.599 83.6999 102.299 82.9999Z" fill="#ffffff"/>
                  <path d="M102.299 82.9999C103.099 82.1999 104.299 82.1999 105.099 82.9999C105.899 83.7999 105.899 84.9999 105.099 85.7999C104.299 86.5999 103.099 86.5999 102.299 85.7999C101.599 84.9999 101.599 83.6999 102.299 82.9999Z" fill="#ffffff" fill-opacity="0.2"/>
                  <path d="M82 64.6001C83.1046 64.6001 84 63.7047 84 62.6001C84 61.4955 83.1046 60.6001 82 60.6001C80.8954 60.6001 80 61.4955 80 62.6001C80 63.7047 80.8954 64.6001 82 64.6001Z" fill="#ffffff"/>
                  <path d="M82 64.6001C83.1046 64.6001 84 63.7047 84 62.6001C84 61.4955 83.1046 60.6001 82 60.6001C80.8954 60.6001 80 61.4955 80 62.6001C80 63.7047 80.8954 64.6001 82 64.6001Z" fill="#ffffff" fill-opacity="0.2"/>
                  <path d="M58.8998 39.4999C59.6998 38.6999 60.8998 38.6999 61.6998 39.4999C62.4998 40.2999 62.4998 41.4999 61.6998 42.2999C60.8998 43.0999 59.6998 43.0999 58.8998 42.2999C58.0998 41.4999 58.0998 40.2999 58.8998 39.4999Z" fill="#ffffff"/>
                  <path d="M58.8998 39.4999C59.6998 38.6999 60.8998 38.6999 61.6998 39.4999C62.4998 40.2999 62.4998 41.4999 61.6998 42.2999C60.8998 43.0999 59.6998 43.0999 58.8998 42.2999C58.0998 41.4999 58.0998 40.2999 58.8998 39.4999Z" fill="#ffffff" fill-opacity="0.2"/>
                  <path d="M165.2 107C166 106.2 167.2 106.2 168 107C168.8 107.8 168.8 109 168 109.8C167.2 110.6 166 110.6 165.2 109.8C164.5 109 164.5 107.8 165.2 107Z" fill="#ffffff"/>
                  <path d="M165.2 107C166 106.2 167.2 106.2 168 107C168.8 107.8 168.8 109 168 109.8C167.2 110.6 166 110.6 165.2 109.8C164.5 109 164.5 107.8 165.2 107Z" fill="#ffffff" fill-opacity="0.2"/>
                  <path d="M143.5 85.3002C144.3 84.5002 145.5 84.5002 146.3 85.3002C147.1 86.1002 147.1 87.3002 146.3 88.1002C145.5 88.9002 144.3 88.9002 143.5 88.1002C142.7 87.3002 142.7 86.1002 143.5 85.3002Z" fill="#ffffff"/>
                  <path d="M143.5 85.3002C144.3 84.5002 145.5 84.5002 146.3 85.3002C147.1 86.1002 147.1 87.3002 146.3 88.1002C145.5 88.9002 144.3 88.9002 143.5 88.1002C142.7 87.3002 142.7 86.1002 143.5 85.3002Z" fill="#ffffff" fill-opacity="0.2"/>
                  <path d="M121.8 63.6C122.6 62.8 123.8 62.8 124.6 63.6C125.4 64.4 125.4 65.6 124.6 66.4C123.8 67.2 122.6 67.2 121.8 66.4C121 65.6 121 64.3 121.8 63.6Z" fill="#ffffff"/>
                  <path d="M121.8 63.6C122.6 62.8 123.8 62.8 124.6 63.6C125.4 64.4 125.4 65.6 124.6 66.4C123.8 67.2 122.6 67.2 121.8 66.4C121 65.6 121 64.3 121.8 63.6Z" fill="#ffffff" fill-opacity="0.2"/>
                  <path d="M101.4 45.2002C102.505 45.2002 103.4 44.3048 103.4 43.2002C103.4 42.0956 102.505 41.2002 101.4 41.2002C100.296 41.2002 99.4004 42.0956 99.4004 43.2002C99.4004 44.3048 100.296 45.2002 101.4 45.2002Z" fill="#ffffff"/>
                  <path d="M101.4 45.2002C102.505 45.2002 103.4 44.3048 103.4 43.2002C103.4 42.0956 102.505 41.2002 101.4 41.2002C100.296 41.2002 99.4004 42.0956 99.4004 43.2002C99.4004 44.3048 100.296 45.2002 101.4 45.2002Z" fill="#ffffff" fill-opacity="0.2"/>
                  <path d="M79.7002 23.5C80.8048 23.5 81.7002 22.6046 81.7002 21.5C81.7002 20.3954 80.8048 19.5 79.7002 19.5C78.5956 19.5 77.7002 20.3954 77.7002 21.5C77.7002 22.6046 78.5956 23.5 79.7002 23.5Z" fill="#ffffff"/>
                  <path d="M79.7002 23.5C80.8048 23.5 81.7002 22.6046 81.7002 21.5C81.7002 20.3954 80.8048 19.5 79.7002 19.5C78.5956 19.5 77.7002 20.3954 77.7002 21.5C77.7002 22.6046 78.5956 23.5 79.7002 23.5Z" fill="#ffffff" fill-opacity="0.2"/>
                  <path d="M186.1 91C187.204 91 188.1 90.1046 188.1 89C188.1 87.8954 187.204 87 186.1 87C184.995 87 184.1 87.8954 184.1 89C184.1 90.1046 184.995 91 186.1 91Z" fill="#ffffff"/>
                  <path d="M186.1 91C187.204 91 188.1 90.1046 188.1 89C188.1 87.8954 187.204 87 186.1 87C184.995 87 184.1 87.8954 184.1 89C184.1 90.1046 184.995 91 186.1 91Z" fill="#ffffff" fill-opacity="0.2"/>
                  <path d="M164.3 69.2998C165.404 69.2998 166.3 68.4044 166.3 67.2998C166.3 66.1952 165.404 65.2998 164.3 65.2998C163.195 65.2998 162.3 66.1952 162.3 67.2998C162.3 68.4044 163.195 69.2998 164.3 69.2998Z" fill="#ffffff"/>
                  <path d="M164.3 69.2998C165.404 69.2998 166.3 68.4044 166.3 67.2998C166.3 66.1952 165.404 65.2998 164.3 65.2998C163.195 65.2998 162.3 66.1952 162.3 67.2998C162.3 68.4044 163.195 69.2998 164.3 69.2998Z" fill="#ffffff" fill-opacity="0.2"/>
                  <path d="M141.2 44.1C142 43.3 143.2 43.3 144 44.1C144.8 44.9 144.8 46.1 144 46.9C143.2 47.7 142 47.7 141.2 46.9C140.4 46.1 140.4 44.9 141.2 44.1Z" fill="#ffffff"/>
                  <path d="M141.2 44.1C142 43.3 143.2 43.3 144 44.1C144.8 44.9 144.8 46.1 144 46.9C143.2 47.7 142 47.7 141.2 46.9C140.4 46.1 140.4 44.9 141.2 44.1Z" fill="#ffffff" fill-opacity="0.2"/>
                  <path d="M119.499 22.3998C120.299 21.5998 121.499 21.5998 122.299 22.3998C123.099 23.1998 123.099 24.3998 122.299 25.1998C121.499 25.9998 120.299 25.9998 119.499 25.1998C118.699 24.3998 118.699 23.0998 119.499 22.3998Z" fill="#ffffff"/>
                  <path d="M119.499 22.3998C120.299 21.5998 121.499 21.5998 122.299 22.3998C123.099 23.1998 123.099 24.3998 122.299 25.1998C121.499 25.9998 120.299 25.9998 119.499 25.1998C118.699 24.3998 118.699 23.0998 119.499 22.3998Z" fill="#ffffff" fill-opacity="0.2"/>
                  <path d="M97.6996 0.6C98.4996 -0.2 99.6996 -0.2 100.5 0.6C101.3 1.4 101.3 2.6 100.5 3.4C99.6996 4.2 98.4996 4.2 97.6996 3.4C96.8996 2.7 96.8996 1.4 97.6996 0.6Z" fill="#ffffff"/>
                  <path d="M97.6996 0.6C98.4996 -0.2 99.6996 -0.2 100.5 0.6C101.3 1.4 101.3 2.6 100.5 3.4C99.6996 4.2 98.4996 4.2 97.6996 3.4C96.8996 2.7 96.8996 1.4 97.6996 0.6Z" fill="#ffffff" fill-opacity="0.2"/>
                </svg>